<?xml version="1.0" standalone="no"?>
<!DOCTYPE svg PUBLIC "-//W3C//DTD SVG 20010904//EN"
 "http://www.w3.org/TR/2001/REC-SVG-20010904/DTD/svg10.dtd">
<svg version="1.0" xmlns="http://www.w3.org/2000/svg"
 width="461.000000pt" height="461.000000pt" viewBox="0 0 461.000000 461.000000"
 preserveAspectRatio="xMidYMid meet">
<metadata>
Created by potrace 1.11, written by Peter Selinger 2001-2013
</metadata>
<g transform="translate(0.000000,461.000000) scale(0.100000,-0.100000)"
fill="#000000" stroke="none">
<path d="M0 2305 l0 -2305 2305 0 2305 0 0 2305 0 2305 -2305 0 -2305 0 0
-2305z m800 1460 l0 -254 98 -3 97 -3 3 -72 3 -73 -191 0 -190 0 0 323 c0 178
3 327 7 330 3 4 44 7 90 7 l83 0 0 -255z m460 -75 l0 -330 -90 0 -90 0 0 330
0 330 90 0 90 0 0 -330z m461 308 c22 -12 46 -32 54 -44 39 -60 35 -166 -7
-211 -12 -13 -20 -24 -17 -26 2 -1 17 -9 32 -17 42 -21 70 -66 75 -121 10
-101 -21 -159 -103 -198 -42 -20 -60 -21 -218 -19 l-172 3 -3 315 c-1 173 0
320 3 327 3 10 44 13 161 13 142 0 160 -2 195 -22z m594 -53 l0 -70 -95 -5
-95 -5 -3 -47 -3 -47 93 -3 93 -3 3 -63 c4 -87 -2 -92 -104 -92 l-84 0 0 -50
0 -49 98 -3 97 -3 0 -70 0 -70 -187 -3 -188 -2 0 330 0 330 188 -2 187 -3 0
-70z m479 52 c22 -12 53 -39 69 -60 28 -34 31 -44 31 -115 0 -67 -3 -82 -27
-119 -15 -23 -42 -50 -59 -59 -18 -9 -35 -18 -37 -20 -2 -2 35 -55 83 -118 47
-63 89 -122 92 -130 5 -14 -7 -16 -99 -16 l-105 0 -60 98 c-98 157 -91 155
-92 20 l0 -118 -85 0 -85 0 0 330 0 330 168 0 c154 0 170 -2 206 -23z m784
-57 c28 -44 56 -80 60 -80 4 0 32 36 61 80 l53 80 99 0 c73 0 99 -3 99 -12 0
-7 -50 -83 -110 -168 l-109 -155 -3 -160 -3 -160 -87 -3 -88 -3 0 156 0 156
-42 62 c-93 138 -91 137 -169 137 l-69 0 0 -255 0 -256 -87 3 -88 3 -3 252 -2
252 -68 3 -67 3 -3 59 c-2 32 -1 65 2 72 4 11 59 14 288 14 l283 0 53 -80z
m-2793 -1165 l0 -330 -82 -3 -83 -3 0 336 0 336 83 -3 82 -3 0 -330z m428 145
c77 -102 143 -186 148 -188 5 -2 10 81 11 185 l3 188 82 3 c79 3 83 2 88 -20
3 -13 4 -162 3 -333 l-3 -310 -87 -3 -86 -3 -88 118 c-49 65 -93 123 -99 129
-5 6 -28 36 -50 67 -22 31 -46 58 -52 61 -10 4 -13 -36 -13 -184 l0 -190 -85
0 -85 0 0 328 c0 181 3 332 7 336 4 4 43 5 87 4 l79 -3 140 -185z m654 -745
c67 -30 138 -102 170 -171 100 -220 -53 -481 -295 -501 -155 -13 -290 60 -355
192 -155 311 161 626 480 480z m-1000 -87 c43 -56 110 -142 148 -192 l70 -91
5 190 5 190 79 3 c57 2 82 -1 87 -10 10 -15 12 -618 3 -642 -5 -13 -22 -16
-83 -16 -42 0 -81 4 -87 8 -11 7 -34 38 -204 262 l-95 124 -5 -194 -5 -195
-82 -3 -83 -3 0 336 0 335 85 0 85 0 77 -102z m1658 76 c22 -11 54 -40 70 -63
27 -38 30 -51 30 -116 0 -65 -3 -78 -30 -116 -16 -23 -45 -49 -62 -58 -18 -9
-33 -18 -33 -21 0 -3 40 -59 90 -125 49 -66 90 -126 90 -132 0 -10 -27 -13
-100 -13 l-99 0 -49 73 c-27 39 -59 91 -72 115 -13 23 -27 39 -32 34 -4 -4 -9
-54 -10 -112 l-3 -105 -73 -3 c-46 -2 -79 2 -88 9 -11 9 -14 67 -14 319 0 170
3 316 6 325 6 14 26 16 173 13 145 -3 171 -6 206 -24z m613 -33 c5 -94 1 -100
-71 -103 l-62 -3 -5 -250 -5 -250 -85 0 -85 0 -3 253 -2 252 -64 0 c-49 0 -65
4 -70 16 -8 21 -8 129 1 138 4 3 106 5 227 4 l221 -3 3 -54z m230 -68 l3 -123
114 0 114 0 3 123 3 122 85 0 85 0 3 -310 c1 -170 0 -320 -3 -333 -5 -22 -9
-23 -88 -20 l-82 3 -3 133 c-1 76 -7 132 -12 132 -6 1 -56 1 -112 1 l-103 1
-5 -134 -5 -133 -79 -3 c-57 -2 -82 1 -87 10 -10 16 -12 642 -2 652 4 4 43 5
88 4 l80 -3 3 -122z m-1675 -801 c76 -35 141 -96 177 -166 22 -44 25 -62 24
-150 0 -87 -4 -109 -26 -158 -34 -74 -95 -134 -174 -169 -55 -25 -76 -29 -155
-29 -81 0 -98 3 -154 30 -157 75 -240 259 -191 422 20 63 31 83 78 134 112
121 271 154 421 86z m-901 -119 l3 -128 75 101 c41 55 84 112 95 127 19 26 23
27 122 27 57 0 103 -4 103 -9 0 -5 -54 -75 -120 -156 l-120 -146 45 -57 c24
-31 85 -106 134 -167 49 -60 86 -114 82 -118 -4 -4 -55 -6 -112 -5 l-104 3
-93 125 c-52 69 -98 126 -103 128 -5 2 -10 -54 -11 -125 l-3 -128 -82 -3 -83
-3 0 331 0 330 85 0 84 0 3 -127z m1565 106 c54 -26 88 -69 103 -131 22 -87
-20 -187 -95 -226 l-34 -17 94 -125 c51 -69 91 -128 88 -132 -2 -5 -49 -8
-103 -8 l-99 0 -57 87 c-31 48 -61 98 -67 110 -19 43 -26 23 -29 -84 l-3 -108
-87 -3 -88 -3 0 331 0 330 167 0 c149 0 171 -2 210 -21z m593 -54 l0 -75 -94
0 -94 0 -4 -39 c-2 -22 -2 -45 0 -50 2 -7 39 -11 93 -11 l90 0 -3 -77 -3 -78
-89 -5 -89 -5 0 -45 0 -45 96 -3 97 -3 0 -74 0 -75 -185 0 -185 0 0 330 0 330
185 0 185 0 0 -75z m509 38 c7 -21 16 -47 21 -58 4 -11 17 -46 29 -77 35 -96
57 -157 110 -298 27 -74 53 -148 57 -163 l6 -28 -93 3 -94 3 -19 53 -19 52
-111 0 -111 0 -20 -52 -21 -53 -92 -3 c-56 -2 -92 1 -92 7 0 8 128 357 159
432 5 13 26 68 46 122 l37 97 97 0 97 0 13 -37z"/>
<path d="M1540 3825 l0 -55 33 0 c36 0 67 25 67 53 0 27 -37 57 -70 57 -30 0
-30 -1 -30 -55z"/>
<path d="M1545 3622 c-3 -3 -5 -32 -5 -65 l0 -60 56 6 c30 3 62 11 70 18 20
17 18 76 -3 87 -22 11 -110 22 -118 14z"/>
<path d="M2598 3874 c-5 -4 -8 -38 -8 -76 l0 -68 38 0 c50 0 82 29 82 73 0 18
-6 41 -12 50 -14 18 -88 34 -100 21z"/>
<path d="M1621 2013 c-45 -22 -91 -95 -91 -145 0 -71 43 -143 102 -174 32 -17
111 -18 141 -3 66 34 107 101 107 174 0 56 -24 100 -73 136 -33 24 -50 29 -96
29 -32 0 -71 -8 -90 -17z"/>
<path d="M2325 2038 c-4 -9 -5 -42 -3 -74 l3 -59 42 1 c23 0 49 6 57 14 23 18
21 83 -3 104 -26 24 -89 33 -96 14z"/>
<path d="M1485 1109 c-40 -12 -57 -27 -89 -73 -59 -87 -17 -220 83 -262 98
-41 204 19 231 131 12 51 12 60 -6 103 -35 83 -134 129 -219 101z"/>
<path d="M2162 1058 l3 -73 40 3 c51 4 75 26 75 68 0 41 -38 74 -87 74 l-34 0
3 -72z"/>
<path d="M3317 959 c-15 -44 -27 -85 -27 -90 0 -9 103 -13 112 -4 5 6 -44 160
-54 170 -3 3 -17 -31 -31 -76z"/>
</g>
</svg>
